<svg width="24" height="24" viewBox="0 0 24 24" fill="none" xmlns="http://www.w3.org/2000/svg">
<path d="M12 20.004L11.242 19.319C9.61 17.8283 8.26 16.5523 7.192 15.491C6.12467 14.429 5.282 13.4923 4.664 12.681C4.046 11.8697 3.614 11.1363 3.368 10.481C3.122 9.82567 2.99934 9.16534 3 8.50001C3 7.22801 3.432 6.16001 4.296 5.29601C5.16 4.43201 6.228 4.00001 7.5 4.00001C8.38 4.00001 9.205 4.22501 9.975 4.67501C10.745 5.12501 11.42 5.77967 12 6.63901C12.58 5.77967 13.255 5.12501 14.025 4.67501C14.795 4.22501 15.62 4.00001 16.5 4.00001C17.772 4.00001 18.84 4.43201 19.704 5.29601C20.568 6.16001 21 7.22801 21 8.50001C21 9.16401 20.8773 9.82401 20.632 10.48C20.386 11.1373 19.954 11.8713 19.336 12.682C18.718 13.4927 17.8783 14.429 16.817 15.491C15.7557 16.5523 14.4023 17.8283 12.757 19.319L12 20.004ZM12 18.65C13.6 17.2033 14.9167 15.9647 15.95 14.934C16.9833 13.9033 17.8 13.0083 18.4 12.249C19 11.4897 19.4167 10.818 19.65 10.234C19.8833 9.64867 20 9.07067 20 8.50001C20 7.50001 19.6667 6.66667 19 6.00001C18.3333 5.33334 17.5 5.00001 16.5 5.00001C15.704 5.00001 14.9693 5.22734 14.296 5.68201C13.6227 6.13667 13.0207 6.82101 12.49 7.73501H11.512C10.9673 6.80834 10.3617 6.12067 9.695 5.67201C9.02834 5.22401 8.297 5.00001 7.501 5.00001C6.51434 5.00001 5.68434 5.33334 5.011 6.00001C4.33767 6.66667 4.00067 7.50001 4 8.50001C4 9.07067 4.11667 9.64867 4.35 10.234C4.58334 10.8193 5 11.491 5.6 12.249C6.2 13.007 7.01667 13.8987 8.05 14.924C9.08334 15.9493 10.4 17.1913 12 18.65Z" fill="#04000C"/>
</svg>
