<svg width="106" height="32" viewBox="0 0 106 32" fill="none" xmlns="http://www.w3.org/2000/svg">
<path d="M18.3398 1.91016V11.0703H17.6172C17.3828 9.3125 16.9596 7.91276 16.3477 6.87109C15.7487 5.82943 14.8893 5.0026 13.7695 4.39062C12.6497 3.77865 11.4909 3.47266 10.293 3.47266C8.9388 3.47266 7.81901 3.88932 6.93359 4.72266C6.04818 5.54297 5.60547 6.48047 5.60547 7.53516C5.60547 8.34245 5.88542 9.07812 6.44531 9.74219C7.2526 10.7188 9.17318 12.0208 12.207 13.6484C14.681 14.9766 16.3672 15.9987 17.2656 16.7148C18.1771 17.418 18.8737 18.2513 19.3555 19.2148C19.8503 20.1784 20.0977 21.1875 20.0977 22.2422C20.0977 24.2474 19.3164 25.9792 17.7539 27.4375C16.2044 28.8828 14.2057 29.6055 11.7578 29.6055C10.9896 29.6055 10.2669 29.5469 9.58984 29.4297C9.1862 29.3646 8.34635 29.1302 7.07031 28.7266C5.80729 28.3099 5.00651 28.1016 4.66797 28.1016C4.34245 28.1016 4.08203 28.1992 3.88672 28.3945C3.70443 28.5898 3.56771 28.9935 3.47656 29.6055H2.75391V20.5234H3.47656C3.8151 22.4245 4.27083 23.8503 4.84375 24.8008C5.41667 25.7383 6.28906 26.5195 7.46094 27.1445C8.64583 27.7695 9.94141 28.082 11.3477 28.082C12.9753 28.082 14.2578 27.6523 15.1953 26.793C16.1458 25.9336 16.6211 24.918 16.6211 23.7461C16.6211 23.0951 16.4388 22.4375 16.0742 21.7734C15.7227 21.1094 15.1693 20.4909 14.4141 19.918C13.9062 19.5273 12.5195 18.7005 10.2539 17.4375C7.98828 16.1615 6.3737 15.1458 5.41016 14.3906C4.45964 13.6354 3.73698 12.8021 3.24219 11.8906C2.7474 10.9792 2.5 9.97656 2.5 8.88281C2.5 6.98177 3.22917 5.34766 4.6875 3.98047C6.14583 2.60026 8.0013 1.91016 10.2539 1.91016C11.6602 1.91016 13.151 2.25521 14.7266 2.94531C15.4557 3.27083 15.9701 3.43359 16.2695 3.43359C16.6081 3.43359 16.8815 3.33594 17.0898 3.14062C17.3112 2.93229 17.487 2.52214 17.6172 1.91016H18.3398Z" fill="#04000C"/>
<path d="M46.4023 1.22656V24.957C46.4023 26.0768 46.4805 26.819 46.6367 27.1836C46.806 27.5482 47.0599 27.8281 47.3984 28.0234C47.737 28.2057 48.3685 28.2969 49.293 28.2969V29H40.5234V28.2969C41.3438 28.2969 41.9036 28.2122 42.2031 28.043C42.5026 27.8737 42.737 27.5938 42.9062 27.2031C43.0755 26.8125 43.1602 26.0638 43.1602 24.957V8.70703C43.1602 6.6888 43.1146 5.45182 43.0234 4.99609C42.9323 4.52734 42.7826 4.20833 42.5742 4.03906C42.3789 3.86979 42.125 3.78516 41.8125 3.78516C41.474 3.78516 41.0443 3.88932 40.5234 4.09766L40.1914 3.41406L45.5234 1.22656H46.4023ZM54.3906 17.8477C54.3776 20.5039 55.0221 22.5872 56.3242 24.0977C57.6263 25.6081 59.1562 26.3633 60.9141 26.3633C62.0859 26.3633 63.1016 26.0443 63.9609 25.4062C64.8333 24.7552 65.5625 23.6484 66.1484 22.0859L66.7539 22.4766C66.4805 24.2604 65.6862 25.888 64.3711 27.3594C63.056 28.8177 61.4089 29.5469 59.4297 29.5469C57.2812 29.5469 55.4388 28.7135 53.9023 27.0469C52.3789 25.3672 51.6172 23.1146 51.6172 20.2891C51.6172 17.2292 52.3984 14.8464 53.9609 13.1406C55.5365 11.4219 57.5091 10.5625 59.8789 10.5625C61.8841 10.5625 63.5312 11.2266 64.8203 12.5547C66.1094 13.8698 66.7539 15.6341 66.7539 17.8477H54.3906ZM54.3906 16.7148H62.6719C62.6068 15.569 62.4701 14.7617 62.2617 14.293C61.9362 13.5638 61.4479 12.9909 60.7969 12.5742C60.1589 12.1576 59.4883 11.9492 58.7852 11.9492C57.7044 11.9492 56.7344 12.3724 55.875 13.2188C55.0286 14.0521 54.5339 15.2174 54.3906 16.7148ZM74.3711 14.3711C76.4674 11.8451 78.4661 10.582 80.3672 10.582C81.3438 10.582 82.1836 10.8294 82.8867 11.3242C83.5898 11.806 84.1497 12.6068 84.5664 13.7266C84.8529 14.5078 84.9961 15.7057 84.9961 17.3203V24.957C84.9961 26.0898 85.0872 26.8581 85.2695 27.2617C85.4128 27.5872 85.6406 27.8411 85.9531 28.0234C86.2786 28.2057 86.8711 28.2969 87.7305 28.2969V29H78.8828V28.2969H79.2539C80.0872 28.2969 80.6667 28.1732 80.9922 27.9258C81.3307 27.6654 81.5651 27.2878 81.6953 26.793C81.7474 26.5977 81.7734 25.9857 81.7734 24.957V17.6328C81.7734 16.0052 81.5586 14.8268 81.1289 14.0977C80.7122 13.3555 80.0026 12.9844 79 12.9844C77.4505 12.9844 75.9076 13.8307 74.3711 15.5234V24.957C74.3711 26.168 74.4427 26.9167 74.5859 27.2031C74.7682 27.5807 75.0156 27.8607 75.3281 28.043C75.6536 28.2122 76.3047 28.2969 77.2812 28.2969V29H68.4336V28.2969H68.8242C69.7357 28.2969 70.3477 28.069 70.6602 27.6133C70.9857 27.1445 71.1484 26.2591 71.1484 24.957V18.3164C71.1484 16.168 71.0964 14.8594 70.9922 14.3906C70.901 13.9219 70.7513 13.6029 70.543 13.4336C70.3477 13.2643 70.0807 13.1797 69.7422 13.1797C69.3776 13.1797 68.9414 13.2773 68.4336 13.4727L68.1406 12.7695L73.5312 10.582H74.3711V14.3711ZM99.293 26.4219C97.457 27.8411 96.3047 28.6615 95.8359 28.8828C95.1328 29.2083 94.3841 29.3711 93.5898 29.3711C92.3529 29.3711 91.3307 28.9479 90.5234 28.1016C89.7292 27.2552 89.332 26.1419 89.332 24.7617C89.332 23.8893 89.5273 23.1341 89.918 22.4961C90.4518 21.6107 91.3763 20.7773 92.6914 19.9961C94.0195 19.2148 96.2201 18.2643 99.293 17.1445V16.4414C99.293 14.6576 99.0065 13.4336 98.4336 12.7695C97.8737 12.1055 97.0534 11.7734 95.9727 11.7734C95.1523 11.7734 94.5013 11.9948 94.0195 12.4375C93.5247 12.8802 93.2773 13.388 93.2773 13.9609L93.3164 15.0938C93.3164 15.6927 93.1602 16.1549 92.8477 16.4805C92.5482 16.806 92.151 16.9688 91.6562 16.9688C91.1745 16.9688 90.7773 16.7995 90.4648 16.4609C90.1654 16.1224 90.0156 15.6602 90.0156 15.0742C90.0156 13.9544 90.5885 12.9258 91.7344 11.9883C92.8802 11.0508 94.4883 10.582 96.5586 10.582C98.1471 10.582 99.4492 10.849 100.465 11.3828C101.233 11.7865 101.799 12.418 102.164 13.2773C102.398 13.8372 102.516 14.9831 102.516 16.7148V22.7891C102.516 24.4948 102.548 25.543 102.613 25.9336C102.678 26.3112 102.783 26.5651 102.926 26.6953C103.082 26.8255 103.258 26.8906 103.453 26.8906C103.661 26.8906 103.844 26.8451 104 26.7539C104.273 26.5846 104.801 26.1094 105.582 25.3281V26.4219C104.124 28.375 102.73 29.3516 101.402 29.3516C100.764 29.3516 100.257 29.1302 99.8789 28.6875C99.5013 28.2448 99.306 27.4896 99.293 26.4219ZM99.293 25.1523V18.3359C97.3268 19.1172 96.0573 19.6706 95.4844 19.9961C94.4557 20.569 93.7201 21.168 93.2773 21.793C92.8346 22.418 92.6133 23.1016 92.6133 23.8438C92.6133 24.7812 92.8932 25.5625 93.4531 26.1875C94.013 26.7995 94.6576 27.1055 95.3867 27.1055C96.3763 27.1055 97.6784 26.4544 99.293 25.1523Z" fill="#04000C"/>
<mask id="path-3-outside-1_11_312" maskUnits="userSpaceOnUse" x="22" y="12" width="18" height="18" fill="black">
<rect fill="white" x="22" y="12" width="18" height="18"/>
<path d="M39 21C39 25.4183 35.4183 29 31 29C26.5817 29 23 25.4183 23 21C23 16.5817 26.5817 13 31 13C35.4183 13 39 16.5817 39 21ZM24.9484 21C24.9484 24.3422 27.6578 27.0516 31 27.0516C34.3422 27.0516 37.0516 24.3422 37.0516 21C37.0516 17.6578 34.3422 14.9484 31 14.9484C27.6578 14.9484 24.9484 17.6578 24.9484 21Z"/>
</mask>
<path d="M39 21C39 25.4183 35.4183 29 31 29C26.5817 29 23 25.4183 23 21C23 16.5817 26.5817 13 31 13C35.4183 13 39 16.5817 39 21ZM24.9484 21C24.9484 24.3422 27.6578 27.0516 31 27.0516C34.3422 27.0516 37.0516 24.3422 37.0516 21C37.0516 17.6578 34.3422 14.9484 31 14.9484C27.6578 14.9484 24.9484 17.6578 24.9484 21Z" stroke="#04000C" stroke-width="2" mask="url(#path-3-outside-1_11_312)"/>
</svg>
