<svg width="24" height="24" viewBox="0 0 24 24" fill="none" xmlns="http://www.w3.org/2000/svg">
<path d="M12 14.1164C12.9057 14.1164 13.8125 14.2248 14.7207 14.4426C15.5155 14.6332 16.312 14.907 17.1104 15.2659L17.4531 15.425C17.7411 15.5663 17.9707 15.7533 18.1494 15.9866L18.2227 16.0891L18.2236 16.0901C18.412 16.3712 18.5 16.6613 18.5 16.97V18.1164H5.5V16.97C5.50001 16.6996 5.5673 16.4437 5.70996 16.1955L5.77539 16.0901C5.96408 15.8078 6.21743 15.5865 6.5459 15.425C7.34608 15.0413 8.14401 14.7426 8.93945 14.5285L9.28027 14.4426C10.1878 14.2249 11.0943 14.1164 12 14.1164ZM11.998 5.88597C12.6056 5.88844 13.1258 6.07345 13.5771 6.44847L13.7666 6.62035C14.2585 7.10949 14.4993 7.68864 14.5 8.38597C14.5006 9.08275 14.2602 9.66105 13.7676 10.1487C13.2724 10.6387 12.6909 10.8788 11.9971 10.884C11.3075 10.8833 10.7288 10.644 10.2344 10.1496C9.73927 9.65454 9.49944 9.07488 9.5 8.38499C9.50057 7.78095 9.68439 7.26101 10.0615 6.80785L10.2354 6.61742C10.6668 6.18411 11.1636 5.94738 11.7441 5.89671L11.998 5.88597Z" stroke="#04000C"/>
</svg>
