<svg aria-hidden="true" style="position: absolute; width: 0; height: 0; overflow: hidden;" version="1.1" xmlns="http://www.w3.org/2000/svg" xmlns:xlink="http://www.w3.org/1999/xlink">
<defs>
<symbol id="icon-Facebook" viewBox="0 0 32 32">
<path stroke-linejoin="round" stroke-linecap="round" stroke-miterlimit="4" stroke-width="1.3333" d="M24 2.667h-4c-1.768 0-3.464 0.702-4.714 1.953s-1.953 2.946-1.953 4.714v4h-4v5.333h4v10.667h5.333v-10.667h4l1.333-5.333h-5.333v-4c0-0.354 0.141-0.693 0.391-0.943s0.589-0.391 0.943-0.391h4v-5.333z"></path>
</symbol>
<symbol id="icon-Instagram" viewBox="0 0 32 32">
<path stroke-linejoin="round" stroke-linecap="round" stroke-miterlimit="4" stroke-width="1.3333" d="M23.333 8.667h0.013M9.333 2.667h13.333c3.682 0 6.667 2.985 6.667 6.667v13.333c0 3.682-2.985 6.667-6.667 6.667h-13.333c-3.682 0-6.667-2.985-6.667-6.667v-13.333c0-3.682 2.985-6.667 6.667-6.667zM21.333 15.16c0.165 1.11-0.025 2.243-0.542 3.239s-1.334 1.803-2.336 2.308c-1.002 0.504-2.138 0.68-3.245 0.502s-2.131-0.701-2.924-1.494c-0.793-0.793-1.316-1.816-1.494-2.924s-0.003-2.243 0.502-3.245c0.504-1.002 1.312-1.82 2.308-2.336s2.129-0.706 3.239-0.542c1.132 0.168 2.18 0.695 2.989 1.504s1.337 1.857 1.504 2.989z"></path>
</symbol>
<symbol id="icon-Mail" viewBox="0 0 32 32">
<path stroke-linejoin="round" stroke-linecap="round" stroke-miterlimit="4" stroke-width="1.3333" d="M29.333 8c0-1.467-1.2-2.667-2.667-2.667h-21.333c-1.467 0-2.667 1.2-2.667 2.667M29.333 8v16c0 1.467-1.2 2.667-2.667 2.667h-21.333c-1.467 0-2.667-1.2-2.667-2.667v-16M29.333 8l-13.333 9.333-13.333-9.333"></path>
</symbol>
<symbol id="icon-Phone-call" viewBox="0 0 32 32">
<path stroke-linejoin="round" stroke-linecap="round" stroke-miterlimit="4" stroke-width="1.3333" d="M20.067 6.667c1.302 0.254 2.499 0.891 3.437 1.829s1.575 2.135 1.829 3.437M20.067 1.333c2.706 0.301 5.229 1.512 7.155 3.436s3.141 4.445 3.445 7.151M29.333 22.56v4c0.001 0.371-0.075 0.739-0.223 1.079s-0.367 0.646-0.641 0.897c-0.274 0.251-0.597 0.442-0.948 0.561s-0.725 0.163-1.094 0.13c-4.103-0.446-8.044-1.848-11.507-4.093-3.222-2.047-5.953-4.778-8-8-2.253-3.478-3.656-7.439-4.093-11.56-0.033-0.369 0.010-0.74 0.129-1.091s0.308-0.673 0.558-0.947c0.25-0.273 0.553-0.492 0.892-0.641s0.705-0.227 1.075-0.227h4c0.647-0.006 1.274 0.223 1.765 0.645s0.811 1.008 0.902 1.649c0.169 1.28 0.482 2.537 0.933 3.747 0.179 0.477 0.218 0.996 0.112 1.495s-0.353 0.956-0.712 1.319l-1.693 1.693c1.898 3.338 4.662 6.102 8 8l1.693-1.693c0.362-0.359 0.82-0.606 1.319-0.712s1.017-0.067 1.495 0.112c1.21 0.451 2.467 0.765 3.747 0.933 0.648 0.091 1.239 0.418 1.662 0.917s0.647 1.136 0.631 1.79z"></path>
</symbol>
<symbol id="icon-shopping-bag" viewBox="0 0 32 32">
<path d="M6.667 28v-18.667h4.667v-0.667c0-1.296 0.454-2.398 1.361-3.305s2.009-1.361 3.305-1.361 2.398 0.454 3.305 1.361c0.908 0.908 1.361 2.009 1.361 3.305v0.667h4.667v18.667h-18.667zM8 26.667h16v-16h-3.333v4h-1.333v-4h-6.667v4h-1.333v-4h-3.333v16zM12.667 9.333h6.667v-0.667c0-0.939-0.321-1.729-0.963-2.371s-1.432-0.963-2.371-0.963c-0.939 0-1.729 0.321-2.371 0.963s-0.963 1.432-0.963 2.371v0.667z"></path>
</symbol>
<symbol id="icon-favorite" viewBox="0 0 32 32">
<path d="M16 26.672l-1.011-0.913c-2.176-1.988-3.976-3.689-5.4-5.104s-2.547-2.665-3.371-3.747-1.4-2.060-1.728-2.933c-0.328-0.874-0.492-1.754-0.491-2.641 0-1.696 0.576-3.12 1.728-4.272s2.576-1.728 4.272-1.728c1.173 0 2.273 0.3 3.3 0.9s1.927 1.473 2.7 2.619c0.773-1.146 1.673-2.019 2.7-2.619s2.127-0.9 3.3-0.9c1.696 0 3.12 0.576 4.272 1.728s1.728 2.576 1.728 4.272c0 0.885-0.164 1.765-0.491 2.64-0.328 0.876-0.904 1.855-1.728 2.936s-1.944 2.329-3.359 3.745c-1.415 1.415-3.22 3.116-5.413 5.104l-1.009 0.913zM16 24.867c2.133-1.929 3.889-3.58 5.267-4.955s2.467-2.568 3.267-3.58c0.8-1.012 1.356-1.908 1.667-2.687 0.311-0.78 0.467-1.551 0.467-2.312 0-1.333-0.444-2.444-1.333-3.333s-2-1.333-3.333-1.333c-1.061 0-2.041 0.303-2.939 0.909s-1.7 1.519-2.408 2.737h-1.304c-0.726-1.236-1.534-2.152-2.423-2.751s-1.864-0.896-2.925-0.896c-1.316 0-2.422 0.444-3.32 1.333s-1.347 2-1.348 3.333c0 0.761 0.156 1.532 0.467 2.312s0.867 1.676 1.667 2.687 1.889 2.2 3.267 3.567c1.378 1.367 3.133 3.023 5.267 4.968z"></path>
</symbol>
<symbol id="icon-person" viewBox="0 0 32 32">
<path stroke-linejoin="miter" stroke-linecap="butt" stroke-miterlimit="4" stroke-width="1.3333" d="M16 18.822c1.208 0 2.417 0.145 3.628 0.435 1.060 0.254 2.122 0.619 3.186 1.098l0.457 0.212c0.384 0.188 0.69 0.438 0.928 0.749l0.098 0.137 0.001 0.001c0.251 0.375 0.369 0.762 0.369 1.173v1.529h-17.333v-1.529c0-0.361 0.090-0.702 0.28-1.033l0.087-0.141c0.252-0.376 0.589-0.671 1.027-0.887 1.067-0.512 2.131-0.91 3.191-1.195l0.454-0.115c1.21-0.29 2.419-0.435 3.626-0.435zM15.997 7.848c0.81 0.003 1.504 0.25 2.105 0.75l0.253 0.229c0.656 0.652 0.977 1.424 0.978 2.354s-0.32 1.7-0.977 2.35c-0.66 0.653-1.436 0.973-2.361 0.98-0.919-0.001-1.691-0.32-2.35-0.979s-0.98-1.433-0.979-2.353c0.001-0.805 0.246-1.499 0.749-2.103l0.232-0.254c0.575-0.578 1.238-0.893 2.012-0.961l0.339-0.014z"></path>
</symbol>
<symbol id="icon-search" viewBox="0 0 32 32">
<path d="M25.98 26.872l-8.349-8.349c-0.667 0.568-1.433 1.008-2.3 1.319s-1.738 0.467-2.613 0.467c-2.135 0-3.942-0.739-5.421-2.217s-2.219-3.285-2.219-5.42c0-2.135 0.739-3.943 2.216-5.423s3.284-2.221 5.419-2.223c2.135-0.002 3.943 0.738 5.424 2.219s2.221 3.288 2.221 5.423c0 0.926-0.164 1.823-0.492 2.689s-0.759 1.608-1.293 2.224l8.349 8.348-0.941 0.944zM12.719 18.973c1.769 0 3.262-0.609 4.48-1.827s1.827-2.712 1.827-4.481c0-1.77-0.609-3.263-1.827-4.48s-2.711-1.826-4.48-1.827c-1.769-0.001-3.263 0.608-4.481 1.827s-1.828 2.712-1.827 4.48c0.001 1.768 0.61 3.261 1.827 4.48s2.71 1.828 4.48 1.827z"></path>
</symbol>
<symbol id="icon-logo" viewBox="0 0 106 32">
<path d="M18.34 1.91v9.16h-0.723c-0.234-1.758-0.658-3.158-1.27-4.199-0.599-1.042-1.458-1.869-2.578-2.48s-2.279-0.918-3.476-0.918c-1.354 0-2.474 0.417-3.359 1.25-0.885 0.82-1.328 1.758-1.328 2.813 0 0.807 0.28 1.543 0.84 2.207 0.807 0.977 2.728 2.279 5.762 3.906 2.474 1.328 4.16 2.35 5.059 3.066 0.912 0.703 1.608 1.537 2.090 2.5 0.495 0.964 0.742 1.973 0.742 3.027 0 2.005-0.781 3.737-2.344 5.195-1.55 1.445-3.548 2.168-5.996 2.168-0.768 0-1.491-0.059-2.168-0.176-0.404-0.065-1.244-0.299-2.52-0.703-1.263-0.417-2.064-0.625-2.402-0.625-0.326 0-0.586 0.098-0.781 0.293-0.182 0.195-0.319 0.599-0.41 1.211h-0.723v-9.082h0.723c0.339 1.901 0.794 3.327 1.367 4.277 0.573 0.938 1.445 1.719 2.617 2.344 1.185 0.625 2.48 0.938 3.887 0.938 1.628 0 2.91-0.43 3.848-1.289 0.95-0.859 1.426-1.875 1.426-3.047 0-0.651-0.182-1.309-0.547-1.973-0.351-0.664-0.905-1.282-1.66-1.855-0.508-0.391-1.895-1.218-4.16-2.48-2.266-1.276-3.88-2.292-4.844-3.047-0.951-0.755-1.673-1.588-2.168-2.5s-0.742-1.914-0.742-3.008c0-1.901 0.729-3.535 2.188-4.902 1.458-1.38 3.314-2.070 5.566-2.070 1.406 0 2.897 0.345 4.473 1.035 0.729 0.326 1.244 0.488 1.543 0.488 0.339 0 0.612-0.098 0.82-0.293 0.221-0.208 0.397-0.618 0.527-1.23h0.723z"></path>
<path d="M46.402 1.227v23.73c0 1.12 0.078 1.862 0.234 2.227 0.169 0.365 0.423 0.645 0.762 0.84 0.339 0.182 0.97 0.273 1.895 0.273v0.703h-8.77v-0.703c0.82 0 1.38-0.085 1.68-0.254s0.534-0.449 0.703-0.84c0.169-0.391 0.254-1.139 0.254-2.246v-16.25c0-2.018-0.046-3.255-0.137-3.711-0.091-0.469-0.241-0.788-0.449-0.957-0.195-0.169-0.449-0.254-0.762-0.254-0.339 0-0.768 0.104-1.289 0.313l-0.332-0.684 5.332-2.188h0.879zM54.391 17.848c-0.013 2.656 0.632 4.739 1.934 6.25s2.832 2.266 4.59 2.266c1.172 0 2.188-0.319 3.047-0.957 0.872-0.651 1.602-1.758 2.187-3.32l0.606 0.391c-0.273 1.784-1.068 3.411-2.383 4.883-1.315 1.458-2.962 2.188-4.941 2.188-2.148 0-3.991-0.833-5.527-2.5-1.523-1.68-2.285-3.932-2.285-6.758 0-3.060 0.781-5.443 2.344-7.149 1.576-1.719 3.548-2.578 5.918-2.578 2.005 0 3.652 0.664 4.941 1.992 1.289 1.315 1.934 3.079 1.934 5.293h-12.363zM54.391 16.715h8.281c-0.065-1.146-0.202-1.953-0.41-2.422-0.325-0.729-0.814-1.302-1.465-1.719-0.638-0.417-1.309-0.625-2.012-0.625-1.081 0-2.051 0.423-2.91 1.27-0.846 0.833-1.341 1.999-1.484 3.496zM74.371 14.371c2.096-2.526 4.095-3.789 5.996-3.789 0.977 0 1.816 0.247 2.519 0.742 0.703 0.482 1.263 1.283 1.68 2.402 0.287 0.781 0.43 1.979 0.43 3.594v7.637c0 1.133 0.091 1.901 0.273 2.305 0.143 0.326 0.371 0.579 0.684 0.762 0.326 0.182 0.918 0.273 1.777 0.273v0.703h-8.848v-0.703h0.371c0.833 0 1.413-0.124 1.738-0.371 0.338-0.26 0.573-0.638 0.703-1.133 0.052-0.195 0.078-0.807 0.078-1.836v-7.324c0-1.628-0.215-2.806-0.644-3.535-0.417-0.742-1.126-1.113-2.129-1.113-1.549 0-3.092 0.846-4.629 2.539v9.434c0 1.211 0.072 1.96 0.215 2.246 0.182 0.378 0.43 0.658 0.742 0.84 0.326 0.169 0.977 0.254 1.953 0.254v0.703h-8.848v-0.703h0.391c0.912 0 1.523-0.228 1.836-0.684 0.326-0.469 0.488-1.354 0.488-2.656v-6.641c0-2.148-0.052-3.457-0.156-3.926-0.091-0.469-0.241-0.788-0.449-0.957-0.195-0.169-0.462-0.254-0.801-0.254-0.365 0-0.801 0.098-1.309 0.293l-0.293-0.703 5.391-2.188h0.84v3.789zM99.293 26.422c-1.836 1.419-2.988 2.24-3.457 2.461-0.703 0.326-1.452 0.488-2.246 0.488-1.237 0-2.259-0.423-3.066-1.27-0.794-0.846-1.191-1.96-1.191-3.34 0-0.872 0.195-1.628 0.586-2.266 0.534-0.885 1.458-1.719 2.773-2.5 1.328-0.781 3.529-1.732 6.602-2.852v-0.703c0-1.784-0.287-3.008-0.859-3.672-0.56-0.664-1.38-0.996-2.461-0.996-0.82 0-1.471 0.221-1.953 0.664-0.495 0.443-0.742 0.95-0.742 1.523l0.039 1.133c0 0.599-0.156 1.061-0.469 1.387-0.299 0.326-0.697 0.488-1.192 0.488-0.482 0-0.879-0.169-1.191-0.508-0.299-0.338-0.449-0.801-0.449-1.387 0-1.12 0.573-2.148 1.719-3.086s2.754-1.406 4.824-1.406c1.588 0 2.891 0.267 3.906 0.801 0.768 0.404 1.334 1.035 1.699 1.895 0.234 0.56 0.352 1.706 0.352 3.437v6.074c0 1.706 0.032 2.754 0.097 3.145 0.065 0.378 0.17 0.631 0.313 0.762 0.156 0.13 0.332 0.195 0.527 0.195 0.208 0 0.391-0.046 0.547-0.137 0.273-0.169 0.801-0.645 1.582-1.426v1.094c-1.458 1.953-2.852 2.93-4.18 2.93-0.638 0-1.145-0.221-1.523-0.664s-0.573-1.198-0.586-2.266zM99.293 25.152v-6.816c-1.966 0.781-3.236 1.335-3.809 1.66-1.029 0.573-1.764 1.172-2.207 1.797s-0.664 1.309-0.664 2.051c0 0.937 0.28 1.719 0.84 2.344 0.56 0.612 1.204 0.918 1.934 0.918 0.99 0 2.292-0.651 3.906-1.953z"></path>
<path fill="none" stroke="#04000c" style="stroke: var(--color1, #04000c)" stroke-linejoin="miter" stroke-linecap="butt" stroke-miterlimit="4" stroke-width="2" d="M39 21c0 4.418-3.582 8-8 8s-8-3.582-8-8c0-4.418 3.582-8 8-8s8 3.582 8 8zM24.948 21c0 3.342 2.709 6.052 6.052 6.052s6.052-2.709 6.052-6.052c0-3.342-2.709-6.052-6.052-6.052s-6.052 2.709-6.052 6.052z"></path>
</symbol>
</defs>
</svg>
